<?xml version="1.0" encoding="iso-8859-1"?>
<!-- Uploaded to: SVG Repo, www.svgrepo.com, Generator: SVG Repo Mixer Tools -->
<svg fill="#000000" version="1.1" id="Layer_1" xmlns="http://www.w3.org/2000/svg" xmlns:xlink="http://www.w3.org/1999/xlink" 
	 viewBox="0 0 496 496" xml:space="preserve">
<g>
	<g>
		<g>
			<rect x="17.088" y="60" transform="matrix(0.7071 -0.7071 0.7071 0.7071 -28.1668 67.9994)" width="101.823" height="16"/>
			<path d="M408.808,0c-23.296,0-45.184,9.072-61.656,25.536L340.688,32l56,56l-7.472,7.472
				C371.408,78.968,350.728,65.528,328,56.024V32c0-17.648-14.352-32-32-32h-96c-17.648,0-32,14.352-32,32v24.024
				c-22.728,9.504-43.408,22.944-61.216,39.448L99.312,88l56-56l-6.464-6.464C132.384,9.072,110.488,0,87.192,0
				C39.12,0,0,39.12,0,87.192c0,23.296,9.072,45.184,25.536,61.656L32,155.312l56-56l7.472,7.472C61.08,143.904,40,193.528,40,248
				c0,57.304,23.296,109.272,60.912,146.928L58.92,464.912c-1.912,3.192-2.92,6.84-2.92,10.56C56,486.792,65.208,496,76.528,496
				h4.76c6.88,0,13.264-3.416,17.08-9.144l41.032-61.544C171.032,444.76,208.224,456,248,456s76.968-11.24,108.6-30.68
				l41.032,61.544c3.808,5.72,10.2,9.136,17.072,9.136h4.76c11.328,0,20.536-9.208,20.536-20.528c0-3.712-1.008-7.368-2.928-10.56
				l-41.984-69.976C432.704,357.272,456,305.304,456,248c0-54.472-21.08-104.096-55.472-141.216L408,99.312l56,56l6.464-6.464
				C486.928,132.384,496,110.488,496,87.192C496,39.12,456.88,0,408.808,0z M184,32c0-8.824,7.176-16,16-16h96
				c8.824,0,16,7.176,16,16v18.12C291.824,43.576,270.328,40,248,40s-43.824,3.576-64,10.12V32z M32.232,132.456
				C21.72,119.736,16,103.904,16,87.192C16,47.936,47.936,16,87.192,16c16.712,0,32.544,5.72,45.264,16.232L32.232,132.456z
				 M85.064,477.984c-0.84,1.264-2.248,2.016-3.768,2.016h-4.76c-2.504,0-4.536-2.032-4.536-4.528c0-0.824,0.224-1.624,0.648-2.328
				l40.288-67.152c4.256,3.64,8.648,7.112,13.184,10.408L85.064,477.984z M423.36,473.136c0.416,0.704,0.64,1.512,0.64,2.336
				c0,2.496-2.032,4.528-4.528,4.528h-4.76c-1.52,0-2.928-0.752-3.768-2.016L369.888,416.4c4.536-3.296,8.936-6.768,13.184-10.408
				L423.36,473.136z M440,248c0,105.864-86.136,192-192,192S56,353.864,56,248S142.136,56,248,56S440,142.136,440,248z
				 M463.768,132.456L363.544,32.232C376.264,21.72,392.096,16,408.808,16C448.064,16,480,47.936,480,87.192
				C480,103.904,474.28,119.736,463.768,132.456z"/>
			<rect x="419.995" y="17.093" transform="matrix(0.7071 -0.7071 0.7071 0.7071 77.2708 322.5562)" width="16" height="101.823"/>
			<path d="M240,120v97.136c-13.76,3.576-24,16-24,30.864c0,17.648,14.352,32,32,32c3.776,0,7.344-0.776,10.712-1.976l39.632,39.632
				l11.312-11.312L272.112,268.8C276.96,263.192,280,255.976,280,248c0-14.864-10.24-27.288-24-30.864V120H240z M264,248
				c0,8.824-7.176,16-16,16c-8.824,0-16-7.176-16-16c0-8.824,7.176-16,16-16C256.824,232,264,239.176,264,248z"/>
			<path d="M248,88c-88.224,0-160,71.776-160,160s71.776,160,160,160c35.72,0,69.6-11.648,97.968-33.68l-9.808-12.64
				C310.616,381.512,280.136,392,248,392c-79.4,0-144-64.6-144-144s64.6-144,144-144s144,64.6,144,144
				c0,36.656-13.912,71.648-39.184,98.52l11.656,10.96C392.544,327.632,408,288.744,408,248C408,159.776,336.224,88,248,88z"/>
		</g>
	</g>
</g>
</svg>